# xmcd
#
# Track frame offsets: 
#        150
#        13496
#        34365
#        54013
#        68132
#        86699
#        100411
#        114374
#        133186
#        149133
#        162457
#        171114
#        188423
#
# Disc length: 2770 seconds
#
# Revision: 0
# Processed by: cddbd v1.5.2PL0 Copyright (c) Steve Scherf et al.
# Submitted via: ExactAudioCopyFreeDBPlugin 1.0
#
DISCID=b90ad00d
DTITLE=The Delta Saints - Death Letter Jubilee
DYEAR=2013
DGENRE=Blues
TTITLE0=Liar
TTITLE1=Chicago
TTITLE2=Death Letter Jubilee
TTITLE3=Jezebel
TTITLE4=Boogie
TTITLE5=Out to sea
TTITLE6=Sing to me
TTITLE7=Drink it slow
TTITLE8=From the dirt
TTITLE9=The devil´s creek
TTITLE10=River
TTITLE11=Old Man
TTITLE12=Jericho
EXTD=
EXTT0=
EXTT1=
EXTT2=
EXTT3=
EXTT4=
EXTT5=
EXTT6=
EXTT7=
EXTT8=
EXTT9=
EXTT10=
EXTT11=
EXTT12=
PLAYORDER=
